# xmcd
#
# Track frame offsets: 
#        150
#        14072
#        27242
#        38862
#        50235
#        63160
#        73970
#        89382
#        103807
#        121202
#
# Disc length: 1830 seconds
#
# Revision: 3
# Processed by: cddbd v1.5.1PL0 Copyright (c) Steve Scherf et al.
# Submitted via: ExactAudioCopy v0.90b4
#
DISCID=9007240a
DTITLE=Ricky Van Shelton - Blue Christmas
DYEAR=2000
DGENRE=Country
TTITLE0=Blue Christmas
TTITLE1=Silver Bells
TTITLE2=Winter Wonderland
TTITLE3=Let It Snow
TTITLE4=Country Christmas
TTITLE5=Jingle Bell Rock
TTITLE6=Silent Night
TTITLE7=I Heard The Bells On Christmas Day
TTITLE8=O, Come All Ye Faithful
TTITLE9=Have Yourself A Merry Little Christmas
EXTD=
EXTT0=
EXTT1=
EXTT2=
EXTT3=
EXTT4=
EXTT5=
EXTT6=
EXTT7=
EXTT8=
EXTT9=
PLAYORDER=
